{
  "accessors": [
    {
      "bufferView": 2,
      "componentType": 5126,
      "count": 576,
      "max": [
        11.383420944213867,
        7.576491355895996,
        6.490780830383301
      ],
      "min": [
        -13.383420944213867,
        4.441078186035156,
        -6.490780830383301
      ],
      "type": "VEC3"
    },
    {
      "bufferView": 2,
      "byteOffset": 6912,
      "componentType": 5126,
      "count": 576,
      "max": [
        1.0,
        1.0,
        1.0
      ],
      "min": [
        -1.0,
        -1.0,
        -1.0
      ],
      "type": "VEC3"
    },
    {
      "bufferView": 3,
      "componentType": 5126,
      "count": 576,
      "max": [
        1.0,
        1.0,
        1.0,
        1.0
      ],
      "min": [
        -1.0,
        -1.0,
        -1.0,
        -1.0
      ],
      "type": "VEC4"
    },
    {
      "bufferView": 1,
      "componentType": 5126,
      "count": 576,
      "max": [
        0.9648725986480713,
        0.983985424041748
      ],
      "min": [
        0.03777427226305008,
        0.01601463556289673
      ],
      "type": "VEC2"
    },
    {
      "bufferView": 0,
      "componentType": 5125,
      "count": 1782,
      "type": "SCALAR"
    },
    {
      "bufferView": 2,
      "byteOffset": 13824,
      "componentType": 5126,
      "count": 598,
      "max": [
        11.284000396728516,
        14.10128116607666,
        6.384000301361084
      ],
      "min": [
        -13.2839994430542,
        -0.5,
        -6.384000301361084
      ],
      "type": "VEC3"
    },
    {
      "bufferView": 2,
      "byteOffset": 21000,
      "componentType": 5126,
      "count": 598,
      "max": [
        1.0,
        1.0,
        1.0
      ],
      "min": [
        -1.0,
        -1.0,
        -1.0
      ],
      "type": "VEC3"
    },
    {
      "bufferView": 3,
      "byteOffset": 9216,
      "componentType": 5126,
      "count": 598,
      "max": [
        1.0,
        0.9999242424964905,
        1.0,
        1.0
      ],
      "min": [
        -1.0,
        -1.0,
        -1.0,
        1.0
      ],
      "type": "VEC4"
    },
    {
      "bufferView": 1,
      "byteOffset": 4608,
      "componentType": 5126,
      "count": 598,
      "max": [
        0.992004930973053,
        0.8602593541145325
      ],
      "min": [
        0.0079951211810112,
        0.0079951211810112
      ],
      "type": "VEC2"
    },
    {
      "bufferView": 0,
      "byteOffset": 7128,
      "componentType": 5125,
      "count": 2304,
      "type": "SCALAR"
    },
    {
      "bufferView": 2,
      "byteOffset": 28176,
      "componentType": 5126,
      "count": 275,
      "max": [
        10.42263126373291,
        9.851778030395508,
        5.795564651489258
      ],
      "min": [
        -12.42263126373291,
        6.4098100662231445,
        -5.795564651489258
      ],
      "type": "VEC3"
    },
    {
      "bufferView": 2,
      "byteOffset": 31476,
      "componentType": 5126,
      "count": 275,
      "max": [
        0.9302830696105957,
        0.9996941089630127,
        0.9998961687088013
      ],
      "min": [
        -0.9998642206192017,
        -0.9999580383300781,
        -0.9999246597290039
      ],
      "type": "VEC3"
    },
    {
      "bufferView": 3,
      "byteOffset": 18784,
      "componentType": 5126,
      "count": 275,
      "max": [
        0.9999934434890747,
        0.7536543607711792,
        0.9999894499778748,
        1.0
      ],
      "min": [
        -0.9999983906745911,
        -0.7554540634155273,
        -0.9993473887443542,
        1.0
      ],
      "type": "VEC4"
    },
    {
      "bufferView": 1,
      "byteOffset": 9392,
      "componentType": 5126,
      "count": 275,
      "max": [
        0.9775406122207642,
        0.97430419921875
      ],
      "min": [
        0.02565595507621765,
        0.018323877826333046
      ],
      "type": "VEC2"
    },
    {
      "bufferView": 0,
      "byteOffset": 16344,
      "componentType": 5125,
      "count": 1200,
      "type": "SCALAR"
    },
    {
      "bufferView": 2,
      "byteOffset": 34776,
      "componentType": 5126,
      "count": 9,
      "max": [
        9.343076705932617,
        6.372470855712891,
        5.876189231872559
      ],
      "min": [
        -11.343076705932617,
        6.11345911026001,
        -5.876189231872559
      ],
      "type": "VEC3"
    },
    {
      "bufferView": 2,
      "byteOffset": 34884,
      "componentType": 5126,
      "count": 9,
      "max": [
        0.0,
        -0.9990312457084656,
        0.0440080352127552
      ],
      "min": [
        0.0,
        -1.0,
        -0.0440080352127552
      ],
      "type": "VEC3"
    },
    {
      "bufferView": 3,
      "byteOffset": 23184,
      "componentType": 5126,
      "count": 9,
      "max": [
        5.080734695184219e-07,
        0.0440080352127552,
        1.0,
        1.0
      ],
      "min": [
        -2.3487609723815694e-07,
        -0.044008031487464905,
        0.9990311861038208,
        1.0
      ],
      "type": "VEC4"
    },
    {
      "bufferView": 1,
      "byteOffset": 11592,
      "componentType": 5126,
      "count": 9,
      "max": [
        0.588228166103363,
        0.9786826372146606
      ],
      "min": [
        0.09216369688510895,
        0.02131747081875801
      ],
      "type": "VEC2"
    },
    {
      "bufferView": 0,
      "byteOffset": 21144,
      "componentType": 5125,
      "count": 24,
      "type": "SCALAR"
    },
    {
      "bufferView": 2,
      "byteOffset": 34992,
      "componentType": 5126,
      "count": 434,
      "max": [
        9.616888999938965,
        10.038105010986328,
        6.696112632751465
      ],
      "min": [
        -12.368637084960938,
        3.312671661376953,
        -6.793137550354004
      ],
      "type": "VEC3"
    },
    {
      "bufferView": 2,
      "byteOffset": 40200,
      "componentType": 5126,
      "count": 434,
      "max": [
        0.830451250076294,
        0.9999958276748657,
        0.9999066591262817
      ],
      "min": [
        -0.8694266080856323,
        -0.9995468854904175,
        -0.9999170303344727
      ],
      "type": "VEC3"
    },
    {
      "bufferView": 3,
      "byteOffset": 23328,
      "componentType": 5126,
      "count": 434,
      "max": [
        0.9999764561653137,
        0.9982895255088806,
        0.9977826476097107,
        1.0
      ],
      "min": [
        -0.9999752044677734,
        -0.9992255568504333,
        -0.9993762969970703,
        1.0
      ],
      "type": "VEC4"
    },
    {
      "bufferView": 1,
      "byteOffset": 11664,
      "componentType": 5126,
      "count": 434,
      "max": [
        0.975631594657898,
        0.9803414940834045
      ],
      "min": [
        0.01442163810133934,
        0.021171869710087776
      ],
      "type": "VEC2"
    },
    {
      "bufferView": 0,
      "byteOffset": 21240,
      "componentType": 5125,
      "count": 1776,
      "type": "SCALAR"
    }
  ],
  "asset": {
    "extras": {
      "author": "UrNogness (https://sketchfab.com/UrNogness)",
      "license": "CC-BY-4.0 (http://creativecommons.org/licenses/by/4.0/)",
      "source": "https://sketchfab.com/3d-models/rusty-bed-e162e6533b224d769edb54cf55f7a62b",
      "title": "Rusty Bed"
    },
    "generator": "Sketchfab-12.67.0",
    "version": "2.0"
  },
  "bufferViews": [
    {
      "buffer": 0,
      "byteLength": 28344,
      "name": "floatBufferViews",
      "target": 34963
    },
    {
      "buffer": 0,
      "byteLength": 15136,
      "byteOffset": 28344,
      "byteStride": 8,
      "name": "floatBufferViews",
      "target": 34962
    },
    {
      "buffer": 0,
      "byteLength": 45408,
      "byteOffset": 43480,
      "byteStride": 12,
      "name": "floatBufferViews",
      "target": 34962
    },
    {
      "buffer": 0,
      "byteLength": 30272,
      "byteOffset": 88888,
      "byteStride": 16,
      "name": "floatBufferViews",
      "target": 34962
    }
  ],
  "buffers": [
    {
      "byteLength": 119160,
      "uri": "scene.bin"
    }
  ],
  "images": [
    {
      "uri": "textures/adv_bed_mid_baseColor.png"
    },
    {
      "uri": "textures/adv_bed_mid_metallicRoughness.png"
    },
    {
      "uri": "textures/adv_bed_mid_normal.png"
    },
    {
      "uri": "textures/adv_bed_base_baseColor.png"
    },
    {
      "uri": "textures/adv_bed_base_metallicRoughness.png"
    },
    {
      "uri": "textures/adv_bed_base_normal.png"
    },
    {
      "uri": "textures/adv_bed_bags_baseColor.png"
    },
    {
      "uri": "textures/adv_bed_bags_metallicRoughness.png"
    },
    {
      "uri": "textures/adv_bed_bags_normal.png"
    },
    {
      "uri": "textures/adv_bed_fence_baseColor.png"
    },
    {
      "uri": "textures/adv_bed_fence_metallicRoughness.png"
    },
    {
      "uri": "textures/adv_bed_fence_normal.png"
    },
    {
      "uri": "textures/adv_bed_wear_baseColor.png"
    },
    {
      "uri": "textures/adv_bed_wear_metallicRoughness.png"
    },
    {
      "uri": "textures/adv_bed_wear_normal.png"
    }
  ],
  "materials": [
    {
      "doubleSided": true,
      "name": "adv_bed_mid",
      "normalTexture": {
        "index": 2,
        "scale": 0.3
      },
      "occlusionTexture": {
        "index": 1
      },
      "pbrMetallicRoughness": {
        "baseColorTexture": {
          "index": 0
        },
        "metallicRoughnessTexture": {
          "index": 1
        }
      }
    },
    {
      "doubleSided": true,
      "name": "adv_bed_base",
      "normalTexture": {
        "index": 5,
        "scale": 0.3
      },
      "occlusionTexture": {
        "index": 4
      },
      "pbrMetallicRoughness": {
        "baseColorTexture": {
          "index": 3
        },
        "metallicRoughnessTexture": {
          "index": 4
        }
      }
    },
    {
      "doubleSided": true,
      "name": "adv_bed_bags",
      "normalTexture": {
        "index": 8
      },
      "occlusionTexture": {
        "index": 7
      },
      "pbrMetallicRoughness": {
        "baseColorTexture": {
          "index": 6
        },
        "metallicRoughnessTexture": {
          "index": 7
        }
      }
    },
    {
      "doubleSided": true,
      "name": "adv_bed_fence",
      "normalTexture": {
        "index": 11,
        "scale": 0.3
      },
      "occlusionTexture": {
        "index": 10
      },
      "pbrMetallicRoughness": {
        "baseColorTexture": {
          "index": 9
        },
        "metallicRoughnessTexture": {
          "index": 10
        }
      }
    },
    {
      "doubleSided": true,
      "name": "adv_bed_wear",
      "normalTexture": {
        "index": 14
      },
      "occlusionTexture": {
        "index": 13
      },
      "pbrMetallicRoughness": {
        "baseColorTexture": {
          "index": 12
        },
        "metallicRoughnessTexture": {
          "index": 13
        }
      }
    }
  ],
  "meshes": [
    {
      "name": "Object_0",
      "primitives": [
        {
          "attributes": {
            "NORMAL": 1,
            "POSITION": 0,
            "TANGENT": 2,
            "TEXCOORD_0": 3
          },
          "indices": 4,
          "material": 0,
          "mode": 4
        }
      ]
    },
    {
      "name": "Object_1",
      "primitives": [
        {
          "attributes": {
            "NORMAL": 6,
            "POSITION": 5,
            "TANGENT": 7,
            "TEXCOORD_0": 8
          },
          "indices": 9,
          "material": 1,
          "mode": 4
        }
      ]
    },
    {
      "name": "Object_2",
      "primitives": [
        {
          "attributes": {
            "NORMAL": 11,
            "POSITION": 10,
            "TANGENT": 12,
            "TEXCOORD_0": 13
          },
          "indices": 14,
          "material": 2,
          "mode": 4
        }
      ]
    },
    {
      "name": "Object_3",
      "primitives": [
        {
          "attributes": {
            "NORMAL": 16,
            "POSITION": 15,
            "TANGENT": 17,
            "TEXCOORD_0": 18
          },
          "indices": 19,
          "material": 3,
          "mode": 4
        }
      ]
    },
    {
      "name": "Object_4",
      "primitives": [
        {
          "attributes": {
            "NORMAL": 21,
            "POSITION": 20,
            "TANGENT": 22,
            "TEXCOORD_0": 23
          },
          "indices": 24,
          "material": 4,
          "mode": 4
        }
      ]
    }
  ],
  "nodes": [
    {
      "children": [
        1
      ],
      "matrix": [
        1.0,
        0.0,
        0.0,
        0.0,
        0.0,
        2.220446049250313e-16,
        -1.0,
        0.0,
        0.0,
        1.0,
        2.220446049250313e-16,
        0.0,
        0.0,
        0.0,
        0.0,
        1.0
      ],
      "name": "Sketchfab_model"
    },
    {
      "children": [
        2
      ],
      "name": "root"
    },
    {
      "children": [
        3,
        5,
        7,
        9,
        11
      ],
      "matrix": [
        1.0,
        0.0,
        0.0,
        0.0,
        0.0,
        2.220446049250313e-16,
        1.0,
        0.0,
        0.0,
        -1.0,
        2.220446049250313e-16,
        0.0,
        0.0,
        0.0,
        0.0,
        1.0
      ],
      "name": "GLTF_SceneRootNode"
    },
    {
      "children": [
        4
      ],
      "name": "adv_bed_mid_0"
    },
    {
      "mesh": 0,
      "name": "Object_4"
    },
    {
      "children": [
        6
      ],
      "name": "adv_bed_base_1"
    },
    {
      "mesh": 1,
      "name": "Object_6"
    },
    {
      "children": [
        8
      ],
      "name": "adv_bed_bags_2"
    },
    {
      "mesh": 2,
      "name": "Object_8"
    },
    {
      "children": [
        10
      ],
      "name": "adv_bed_fence_3"
    },
    {
      "mesh": 3,
      "name": "Object_10"
    },
    {
      "children": [
        12
      ],
      "name": "adv_bed_wear_4"
    },
    {
      "mesh": 4,
      "name": "Object_12"
    }
  ],
  "samplers": [
    {
      "magFilter": 9729,
      "minFilter": 9987,
      "wrapS": 10497,
      "wrapT": 10497
    }
  ],
  "scene": 0,
  "scenes": [
    {
      "name": "Sketchfab_Scene",
      "nodes": [
        0
      ]
    }
  ],
  "textures": [
    {
      "sampler": 0,
      "source": 0
    },
    {
      "sampler": 0,
      "source": 1
    },
    {
      "sampler": 0,
      "source": 2
    },
    {
      "sampler": 0,
      "source": 3
    },
    {
      "sampler": 0,
      "source": 4
    },
    {
      "sampler": 0,
      "source": 5
    },
    {
      "sampler": 0,
      "source": 6
    },
    {
      "sampler": 0,
      "source": 7
    },
    {
      "sampler": 0,
      "source": 8
    },
    {
      "sampler": 0,
      "source": 9
    },
    {
      "sampler": 0,
      "source": 10
    },
    {
      "sampler": 0,
      "source": 11
    },
    {
      "sampler": 0,
      "source": 12
    },
    {
      "sampler": 0,
      "source": 13
    },
    {
      "sampler": 0,
      "source": 14
    }
  ]
}
